<svg width="24" height="20" viewBox="0 0 24 20" fill="none" xmlns="http://www.w3.org/2000/svg" >
<path d="M 15.3355 16.2527 L 19.3714 16.2502 C 19.5767 16.2503 19.7789 16.2 19.9596 16.1039 L 15.3355 16.2527 Z M 15.3355 16.2527 C 15.3355 16.2525 15.3355 16.2524 15.3355 16.2522 L 14.6875 16.2531 L 15.3355 16.2527 Z M 11.7199 0.8197 L 11.7208 0.8197 C 13.481 0.8174 15.1712 1.4903 16.4336 2.6929 C 17.6945 3.894 18.4297 5.5289 18.4871 7.2512 L 18.4909 7.484 V 11.4704 V 11.6078 L 18.5467 11.7333 L 19.9118 14.8081 L 19.9119 14.8084 C 19.95 14.8942 19.9657 14.9873 19.9578 15.0798 C 19.9526 15.1418 19.9368 15.2025 19.9113 15.2596 L 19.5858 14.5267 L 18.3031 11.6389 V 7.4914 V 7.4856 L 18.303 7.4797 L 18.2991 7.2605 L 18.299 7.2554 L 18.2988 7.2503 C 18.2416 5.5643 17.5206 3.9686 16.2915 2.8 C 15.0629 1.632 13.423 0.9821 11.7193 0.9851 C 8.0873 0.9854 5.1367 3.871 5.1367 7.4787 V 11.6388 L 3.8623 14.5282 L 3.5396 15.2599 C 3.5139 15.2028 3.4979 15.1419 3.4924 15.0799 C 3.4843 14.9876 3.4995 14.8945 3.537 14.8088 C 3.537 14.8086 3.5371 14.8085 3.5372 14.8083 L 4.8938 11.7329 L 4.9489 11.6079 V 11.4713 V 7.4787 C 4.9489 3.7982 7.9649 0.8197 11.7199 0.8197 Z M 4.0791 15.6022 H 4.0783 V 16.2502 L 4.0791 15.6022 Z M 9.405 16.4072 L 9.4047 16.3967 C 9.4045 16.3937 9.4043 16.3906 9.4042 16.3876 L 8.7572 16.4255 L 9.405 16.4072 Z M 18.9935 15.4377 H 19.7854 H 3.6659 H 4.4552 H 18.9935 Z M 12.581 15.6035 L 10.2357 15.6051 L 9.5882 15.6055 L 9.5881 16.253 C 9.588 16.7979 9.8009 17.3201 10.1797 17.7118 C 10.5583 18.1032 11.0733 18.3343 11.6173 18.3603 C 12.1612 18.3862 12.6959 18.2052 13.1104 17.8522 C 13.5253 17.499 13.7883 17.0001 13.8417 16.4578 L 13.8435 16.4395 L 13.8443 16.4212 L 13.8502 16.2779 L 13.8096 15.611 L 13.2037 15.6031 H 13.2033 H 13.2027 H 12.581 L 12.581 15.6035 Z M 21.6899 1.104 L 21.69 1.1042 C 21.7021 1.12 21.707 1.138 21.7058 1.155 C 21.7049 1.1685 21.7001 1.1825 21.6907 1.1951 L 21.6534 1.227 L 19.6937 2.6746 L 19.6925 2.6755 C 19.6734 2.6897 19.6479 2.6972 19.6214 2.6945 C 19.595 2.6918 19.5728 2.6795 19.5582 2.6631 C 19.5439 2.6469 19.5377 2.6279 19.5383 2.61 C 19.5388 2.5955 19.5437 2.5804 19.5539 2.5669 L 19.5921 2.5341 L 21.5518 1.0865 C 21.5719 1.0717 21.5989 1.0643 21.6266 1.0682 C 21.6541 1.0721 21.6764 1.0862 21.6899 1.104 Z M 22.6946 6.9905 L 23.3411 6.9457 L 22.6946 6.9906 C 22.6959 7.0085 22.6904 7.0276 22.6768 7.044 C 22.6651 7.0582 22.6477 7.0697 22.6266 7.075 L 22.5793 7.0782 H 20.6229 C 20.5962 7.0782 20.5721 7.0681 20.5553 7.0526 L 20.1309 7.5138 L 20.5553 7.0526 C 20.5387 7.0374 20.5305 7.0184 20.5292 7.0005 L 19.8828 7.0453 L 20.5292 7.0005 C 20.528 6.9826 20.5335 6.9635 20.547 6.9471 C 20.5588 6.9329 20.5762 6.9214 20.5972 6.916 L 20.6446 6.9128 H 22.6009 C 22.6277 6.9128 22.6517 6.9229 22.6686 6.9384 C 22.6852 6.9537 22.6934 6.9726 22.6946 6.9905 Z M 3.8843 2.6571 L 4.3998 3.0497 L 3.8843 2.6571 C 3.8776 2.6659 3.8688 2.6739 3.8579 2.6803 L 4.1685 3.213 L 3.8579 2.6803 C 3.847 2.6866 3.8344 2.6911 3.8209 2.693 C 3.8075 2.6949 3.7938 2.6941 3.7807 2.6908 L 3.6222 3.3191 L 3.7807 2.6908 C 3.7677 2.6875 3.756 2.6819 3.7462 2.6746 L 1.7678 1.2132 L 1.4044 1.7052 L 1.7678 1.2132 C 1.758 1.206 1.7504 1.1974 1.7449 1.1883 L 1.2015 1.515 L 1.7449 1.1883 C 1.7394 1.1792 1.7361 1.1697 1.7348 1.1602 C 1.7334 1.1507 1.7339 1.1411 1.7363 1.1317 C 1.7388 1.1222 1.7433 1.1128 1.7499 1.104 C 1.7566 1.0953 1.7655 1.0872 1.7764 1.0809 C 1.7873 1.0745 1.7998 1.0701 1.8133 1.0682 C 1.8267 1.0663 1.8405 1.0671 1.8535 1.0703 C 1.8665 1.0736 1.8782 1.0793 1.888 1.0865 L 3.8664 2.5479 C 3.8762 2.5552 3.8839 2.5638 3.8893 2.5729 C 3.8948 2.5819 3.8981 2.5915 3.8995 2.601 C 3.9008 2.6104 3.9003 2.6201 3.8979 2.6295 C 3.8954 2.6389 3.891 2.6484 3.8843 2.6571 Z M 0.8132 6.916 L 0.8606 6.9128 H 2.8169 C 2.8437 6.9128 2.8677 6.9229 2.8846 6.9384 C 2.9012 6.9537 2.9094 6.9726 2.9106 6.9905 C 2.9119 7.0085 2.9064 7.0276 2.8928 7.044 C 2.8811 7.0582 2.8637 7.0697 2.8426 7.075 L 2.7952 7.0782 H 0.8389 C 0.8121 7.0782 0.7881 7.0681 0.7712 7.0526 C 0.7547 7.0374 0.7464 7.0184 0.7452 7.0005 C 0.744 6.9826 0.7495 6.9635 0.763 6.9471 C 0.7748 6.9329 0.7921 6.9214 0.8132 6.916 Z M 4.2515 2.0267 C 4.3294 2.0843 4.395 2.1564 4.4447 2.239 L 4.2515 2.0267 Z" stroke="white" stroke-width="1" stroke-linecap="round" stroke-linejoin="round" />
</svg>
