<svg width="24" height="19" viewBox="0 0 24 19" fill="none" xmlns="http://www.w3.org/2000/svg">
<path d="M11.802 6.31066e-06C13.7418 -0.00248572 15.6063 0.733172 17.0006 2.05112C18.3949 3.36906 19.2094 5.16575 19.2715 7.06052L19.2755 7.30398V11.2939L20.6506 14.3674C20.7336 14.5526 20.7681 14.7551 20.7508 14.9566C20.7336 15.158 20.6653 15.3521 20.552 15.5213C20.4388 15.6905 20.2842 15.8294 20.1022 15.9255C19.9202 16.0216 19.7165 16.0718 19.5097 16.0717L14.7914 16.0746C14.7924 16.8352 14.4899 17.5662 13.9482 18.1122C13.4064 18.6582 12.6681 18.9763 11.8902 18.9987C11.1123 19.0212 10.3562 18.7463 9.78238 18.2324C9.20861 17.7186 8.8625 17.0063 8.81759 16.247L8.81261 16.0717H4.1043C3.89785 16.0714 3.69468 16.0211 3.51305 15.9252C3.33143 15.8292 3.17702 15.6907 3.06371 15.522C2.9504 15.3534 2.88173 15.1598 2.86386 14.9588C2.846 14.7578 2.8795 14.5556 2.96136 14.3703L4.32851 11.2949V7.30398C4.32851 3.25758 7.66867 6.31066e-06 11.802 6.31066e-06ZM13.2967 16.0727L10.3073 16.0746C10.3072 16.4498 10.4549 16.8107 10.7197 17.0824C10.9846 17.3541 11.3462 17.5158 11.7297 17.5339C12.1132 17.5521 12.4891 17.4253 12.7796 17.1799C13.07 16.9345 13.2527 16.5893 13.2897 16.2158L13.2957 16.0727H13.2967ZM11.802 1.4608C8.49374 1.4608 5.82321 4.06491 5.82321 7.30398V11.5987L4.48396 14.6119H19.129L17.7808 11.5997V7.31664L17.7768 7.09753C17.7251 5.58357 17.0725 4.14872 15.9574 3.09667C14.8422 2.04461 13.352 1.45793 11.802 1.4608ZM20.7702 6.09055H22.7632C22.9525 6.09061 23.1348 6.16091 23.2731 6.28724C23.4115 6.41358 23.4956 6.58654 23.5085 6.77116C23.5214 6.95579 23.4622 7.13832 23.3427 7.28188C23.2232 7.42543 23.0524 7.5193 22.8648 7.54453L22.7632 7.55134H20.7702C20.5809 7.55129 20.3986 7.48099 20.2602 7.35465C20.1219 7.22831 20.0377 7.05536 20.0248 6.87073C20.0119 6.6861 20.0712 6.50357 20.1907 6.36002C20.3102 6.21646 20.481 6.12259 20.6686 6.09737L20.7702 6.09055ZM0.840873 6.09055H2.83381C3.02316 6.09061 3.20543 6.16091 3.34379 6.28724C3.48215 6.41358 3.56628 6.58654 3.57919 6.77116C3.5921 6.95579 3.53281 7.13832 3.41332 7.28188C3.29383 7.42543 3.12303 7.5193 2.93545 7.54453L2.83381 7.55134H0.840873C0.65152 7.55129 0.469249 7.48099 0.330889 7.35465C0.192529 7.22831 0.108395 7.05536 0.0954892 6.87073C0.082583 6.6861 0.141866 6.50357 0.26136 6.36002C0.380853 6.21646 0.551648 6.12259 0.739233 6.09737L0.840873 6.09055ZM22.3646 0.539527C22.4721 0.679511 22.5246 0.852569 22.5125 1.0272C22.5004 1.20182 22.4246 1.36641 22.2988 1.49099L22.2151 1.56208L20.2222 3.02288C20.0713 3.134 19.883 3.18517 19.6951 3.16607C19.5072 3.14698 19.3336 3.05905 19.2094 2.91997C19.0851 2.7809 19.0194 2.60099 19.0254 2.41646C19.0314 2.23192 19.1086 2.05644 19.2416 1.92533L19.3253 1.85424L21.3183 0.393447C21.4768 0.277219 21.6762 0.227313 21.8724 0.254708C22.0686 0.282104 22.2456 0.384556 22.3646 0.539527ZM2.28575 0.393447L4.27869 1.85424C4.3572 1.91179 4.42335 1.98389 4.47335 2.06643C4.52335 2.14896 4.55623 2.24031 4.57011 2.33527C4.58399 2.43022 4.5786 2.52692 4.55424 2.61983C4.52989 2.71275 4.48704 2.80007 4.42815 2.8768C4.36927 2.95353 4.2955 3.01818 4.21104 3.06705C4.1266 3.11592 4.03312 3.14805 3.93597 3.16162C3.83881 3.17518 3.73987 3.16991 3.6448 3.14611C3.54972 3.1223 3.46038 3.08043 3.38186 3.02288L1.38893 1.56208C1.31042 1.50453 1.24427 1.43243 1.19426 1.3499C1.14426 1.26736 1.11138 1.17601 1.0975 1.08106C1.08362 0.986106 1.08901 0.889411 1.11337 0.796495C1.13773 0.703578 1.18057 0.61626 1.23946 0.539527C1.29835 0.462793 1.37212 0.398146 1.45657 0.349277C1.54102 0.300407 1.63449 0.268273 1.73165 0.254708C1.82881 0.241144 1.92775 0.246414 2.02282 0.270219C2.11789 0.294024 2.20724 0.335897 2.28575 0.393447Z" fill="#C04040"/>
</svg>
