<svg width="22" height="22" viewBox="0 0 33 30" fill="none" xmlns="http://www.w3.org/2000/svg">
<path d="M14.0086 3.6291L1.65649 24.2499C1.40181 24.691 1.26706 25.191 1.26564 25.7003C1.26421 26.2095 1.39616 26.7103 1.64836 27.1528C1.90056 27.5952 2.26421 27.9639 2.70314 28.2222C3.14208 28.4805 3.64098 28.6193 4.15024 28.6249H28.8544C29.3637 28.6193 29.8626 28.4805 30.3015 28.2222C30.7404 27.9639 31.1041 27.5952 31.3563 27.1528C31.6085 26.7103 31.7404 26.2095 31.739 25.7003C31.7376 25.191 31.6028 24.691 31.3482 24.2499L18.9961 3.6291C18.7361 3.2005 18.37 2.84615 17.9332 2.60022C17.4964 2.35429 17.0036 2.2251 16.5023 2.2251C16.001 2.2251 15.5082 2.35429 15.0714 2.60022C14.6346 2.84615 14.2685 3.2005 14.0086 3.6291V3.6291Z" stroke="#FFCB05" stroke-width="2.5" stroke-linecap="round" stroke-linejoin="round"/>
<path d="M16.5 11.125V16.9583" stroke="#FFCB05" stroke-width="2.5" stroke-linecap="round" stroke-linejoin="round"/>
<path d="M16.5 22.7915H16.5149" stroke="#FFCB05" stroke-width="2.5" stroke-linecap="round" stroke-linejoin="round"/>
</svg>
