<svg width="35" height="35" viewBox="0 0 35 35" fill="none" xmlns="http://www.w3.org/2000/svg">
<path d="M23.5156 10.6641V9.02344C23.5156 8.87305 23.3926 8.75 23.2422 8.75H10.1172C9.9668 8.75 9.84375 8.87305 9.84375 9.02344V10.6641C9.84375 10.8145 9.9668 10.9375 10.1172 10.9375H23.2422C23.3926 10.9375 23.5156 10.8145 23.5156 10.6641ZM10.1172 13.6719C9.9668 13.6719 9.84375 13.7949 9.84375 13.9453V15.5859C9.84375 15.7363 9.9668 15.8594 10.1172 15.8594H16.4062C16.5566 15.8594 16.6797 15.7363 16.6797 15.5859V13.9453C16.6797 13.7949 16.5566 13.6719 16.4062 13.6719H10.1172ZM15.0391 29.1211H7.10938V5.05859H26.25V16.8164C26.25 16.9668 26.373 17.0898 26.5234 17.0898H28.4375C28.5879 17.0898 28.7109 16.9668 28.7109 16.8164V3.69141C28.7109 3.08643 28.2222 2.59766 27.6172 2.59766H5.74219C5.13721 2.59766 4.64844 3.08643 4.64844 3.69141V30.4883C4.64844 31.0933 5.13721 31.582 5.74219 31.582H15.0391C15.1895 31.582 15.3125 31.459 15.3125 31.3086V29.3945C15.3125 29.2441 15.1895 29.1211 15.0391 29.1211ZM30.2729 30.8813L27.084 27.6924C27.8462 26.6841 28.3008 25.4263 28.3008 24.0625C28.3008 20.7402 25.6074 18.0469 22.2852 18.0469C18.9629 18.0469 16.2695 20.7402 16.2695 24.0625C16.2695 27.3848 18.9629 30.0781 22.2852 30.0781C23.5088 30.0781 24.6436 29.7124 25.5937 29.0869L28.8306 32.3237C28.8853 32.3784 28.9536 32.4023 29.022 32.4023C29.0903 32.4023 29.1621 32.375 29.2134 32.3237L30.2729 31.2642C30.2982 31.2391 30.3182 31.2092 30.3318 31.1764C30.3455 31.1435 30.3525 31.1083 30.3525 31.0728C30.3525 31.0372 30.3455 31.002 30.3318 30.9691C30.3182 30.9363 30.2982 30.9064 30.2729 30.8813V30.8813ZM22.2852 27.8906C20.1694 27.8906 18.457 26.1782 18.457 24.0625C18.457 21.9468 20.1694 20.2344 22.2852 20.2344C24.4009 20.2344 26.1133 21.9468 26.1133 24.0625C26.1133 26.1782 24.4009 27.8906 22.2852 27.8906Z" fill="white"/>
</svg>
