<svg width="36" height="36" viewBox="0 0 36 36" fill="none" xmlns="http://www.w3.org/2000/svg">
<path d="M36 16V12H32V8C31.9968 6.94011 31.5744 5.92453 30.8249 5.17507C30.0755 4.42561 29.0599 4.00317 28 4H24V0H20V4H16V0H12V4H8C6.94011 4.00317 5.92453 4.42561 5.17507 5.17507C4.42561 5.92453 4.00317 6.94011 4 8V12H0V16H4V20H0V24H4V28C4.00317 29.0599 4.42561 30.0755 5.17507 30.8249C5.92453 31.5744 6.94011 31.9968 8 32H12V36H16V32H20V36H24V32H28C29.0599 31.9968 30.0755 31.5744 30.8249 30.8249C31.5744 30.0755 31.9968 29.0599 32 28V24H36V20H32V16H36ZM28 28H8V8H28V28Z" fill="white"/>
<path d="M16.7178 9.99976H14.0278L10.0078 25.9998H12.0618L12.9898 22.2498H17.6218L18.5258 25.9998H20.6498L16.7178 9.99976ZM13.2598 20.6478L15.2958 11.8998H15.3878L17.3538 20.6478H13.2598ZM22.4838 9.99976H24.4838V25.9998H22.4838V9.99976Z" fill="white"/>
</svg>
