<svg width="15" height="21" viewBox="0 0 15 21" fill="none" xmlns="http://www.w3.org/2000/svg">
<path d="M11.425 4.07508H4.0444V3.10397C4.0444 3.07877 4.04933 3.05382 4.05889 3.03053C4.06846 3.00725 4.08248 2.9861 4.10016 2.96828C4.11784 2.95046 4.13883 2.93632 4.16192 2.92668C4.18502 2.91704 4.20977 2.91207 4.23478 2.91207H6.35196V2.33057C6.35196 2.02212 6.47351 1.72631 6.68989 1.5082C6.90626 1.2901 7.19973 1.16757 7.50573 1.16757C7.81173 1.16757 8.1052 1.2901 8.32158 1.5082C8.53795 1.72631 8.65951 2.02212 8.65951 2.33057V2.91207H10.1421C10.1158 2.71936 10.1023 2.52509 10.1017 2.33057C10.1023 2.13605 10.1158 1.94178 10.1421 1.74907H9.73829C9.6112 1.24873 9.32253 0.805268 8.91778 0.48858C8.51303 0.171893 8.01522 0 7.50285 0C6.99047 0 6.49267 0.171893 6.08792 0.48858C5.68317 0.805268 5.39449 1.24873 5.26741 1.74907H4.23478C3.87875 1.7506 3.53774 1.89384 3.28599 2.1476C3.03425 2.40136 2.89214 2.7451 2.89062 3.10397V5.23808H11.425C12.4634 5.17986 12.4634 4.13315 11.425 4.07508Z" fill="#124251"/>
<path d="M3.66878 4.07508H11.0493V3.10397C11.0493 3.07877 11.0444 3.05382 11.0349 3.03053C11.0253 3.00725 11.0113 2.9861 10.9936 2.96828C10.9759 2.95046 10.9549 2.93632 10.9318 2.92668C10.9087 2.91704 10.884 2.91207 10.859 2.91207H8.74179V2.33057C8.74179 2.02212 8.62024 1.72631 8.40386 1.5082C8.18749 1.2901 7.89402 1.16757 7.58802 1.16757C7.28202 1.16757 6.98855 1.2901 6.77217 1.5082C6.5558 1.72631 6.43424 2.02212 6.43424 2.33057V2.91207H4.95164C4.97791 2.71936 4.9914 2.52509 4.99202 2.33057C4.9914 2.13605 4.97791 1.94178 4.95164 1.74907H5.35546C5.48255 1.24873 5.77122 0.805268 6.17597 0.48858C6.58072 0.171893 7.07853 0 7.5909 0C8.10328 0 8.60108 0.171893 9.00583 0.48858C9.41058 0.805268 9.69926 1.24873 9.82634 1.74907H10.859C11.215 1.7506 11.556 1.89384 11.8078 2.1476C12.0595 2.40136 12.2016 2.7451 12.2031 3.10397V5.23808H3.66878C2.63038 5.17986 2.63038 4.13315 3.66878 4.07508Z" fill="#124251"/>
<path d="M14.4222 7.21128C14.2292 7.2106 14.0365 7.1956 13.8453 7.16639V19.0746H1.15378V3.0431H2.30755V1.76058H1.15378C1.0125 1.73787 0.868494 1.74871 0.731265 1.79241C0.594036 1.8361 0.466703 1.91165 0.357669 2.01406C0.248635 2.11648 0.160379 2.24343 0.0987263 2.38654C0.0370732 2.52966 0.00342416 2.68568 0 2.84431V19.2734C0.000755356 19.4165 0.026871 19.5581 0.0768554 19.69C0.12684 19.822 0.199714 19.9417 0.291318 20.0423C0.382921 20.143 0.49146 20.2226 0.610736 20.2766C0.730012 20.3306 0.85769 20.3579 0.986479 20.3571H14.0126C14.1414 20.3579 14.2691 20.3306 14.3884 20.2766C14.5076 20.2226 14.6162 20.143 14.7078 20.0423C14.7994 19.9417 14.8723 19.822 14.9222 19.69C14.9722 19.5581 14.9983 19.4165 14.9991 19.2734V7.16639C14.8079 7.1956 14.6152 7.2106 14.4222 7.21128Z" fill="#124251"/>
<path d="M0.577789 7.21128C0.770769 7.2106 0.963493 7.1956 1.15468 7.16639V19.0746H13.8462V3.0431H12.6924V1.76058H13.8462C13.9875 1.73787 14.1315 1.74871 14.2687 1.79241C14.406 1.8361 14.5333 1.91165 14.6423 2.01406C14.7514 2.11648 14.8396 2.24343 14.9013 2.38654C14.9629 2.52966 14.9966 2.68568 15 2.84431V19.2734C14.9992 19.4165 14.9731 19.5581 14.9231 19.69C14.8732 19.822 14.8003 19.9417 14.7087 20.0423C14.6171 20.143 14.5085 20.2226 14.3893 20.2766C14.27 20.3306 14.1423 20.3579 14.0135 20.3571H0.987379C0.85859 20.3579 0.730912 20.3306 0.611636 20.2766C0.49236 20.2226 0.383821 20.143 0.292217 20.0423C0.200614 19.9417 0.127741 19.822 0.0777559 19.69C0.0277719 19.5581 0.00165558 19.4165 0.000900269 19.2734V7.16639C0.192084 7.1956 0.384809 7.2106 0.577789 7.21128Z" fill="#124251"/>
<path d="M4.19301 16.7215C4.28565 16.8154 4.41097 16.868 4.54159 16.868C4.67221 16.868 4.79753 16.8154 4.89017 16.7215L7.51068 14.0868L10.1312 16.7215C10.2263 16.8034 10.3483 16.8457 10.4728 16.84C10.5972 16.8342 10.7149 16.7808 10.8023 16.6904C10.8898 16.6 10.9405 16.4793 10.9444 16.3525C10.9483 16.2256 10.9051 16.102 10.8234 16.0062L8.21278 13.3815L10.8234 10.7568C10.9165 10.6626 10.9691 10.5346 10.9695 10.4009C10.97 10.2672 10.9183 10.1388 10.8259 10.044C10.7334 9.94909 10.6078 9.89553 10.4766 9.89506C10.3454 9.89458 10.2193 9.94724 10.1262 10.0414L7.51068 12.6712L4.89017 10.0364C4.79706 9.9422 4.67105 9.88955 4.53984 9.89002C4.40864 9.89049 4.28299 9.94405 4.19054 10.0389C4.09809 10.1338 4.04641 10.2622 4.04688 10.3959C4.04734 10.5295 4.09991 10.6576 4.19301 10.7518L6.80363 13.3765L4.19796 16.0062C4.15129 16.0527 4.11412 16.1081 4.08859 16.1693C4.06306 16.2306 4.04969 16.2963 4.04923 16.3628C4.04877 16.4293 4.06123 16.4953 4.08591 16.5568C4.11059 16.6184 4.14699 16.6744 4.19301 16.7215Z" fill="#124251"/>
</svg>
