<svg width="33" height="27" viewBox="0 0 33 27" fill="none" xmlns="http://www.w3.org/2000/svg">
<path d="M29.6276 20.7917V3.29167H3.3776V20.7917H29.6276ZM29.6276 0.375C30.4012 0.375 31.143 0.682291 31.69 1.22927C32.237 1.77625 32.5443 2.51812 32.5443 3.29167V20.7917C32.5443 21.5652 32.237 22.3071 31.69 22.8541C31.143 23.401 30.4012 23.7083 29.6276 23.7083H22.3359V26.625H10.6693V23.7083H3.3776C2.60406 23.7083 1.86219 23.401 1.31521 22.8541C0.768228 22.3071 0.460938 21.5652 0.460938 20.7917V3.29167C0.460938 2.51812 0.768228 1.77625 1.31521 1.22927C1.86219 0.682291 2.60406 0.375 3.3776 0.375H29.6276ZM6.29427 6.20833H15.0443V12.0417H6.29427V6.20833ZM6.29427 14.9583H15.0443V17.875H6.29427V14.9583ZM17.9609 6.20833H26.7109V9.125H17.9609V6.20833ZM17.9609 12.0417H26.7109V17.875H17.9609V12.0417Z" fill="#F4F7FE"/>
</svg>
