<svg width="30" height="31" viewBox="0 0 31 32" fill="none" xmlns="http://www.w3.org/2000/svg">
<path d="M28.6318 0H1.68422C1.23754 0 0.809151 0.177444 0.493298 0.493298C0.177444 0.809151 0 1.23754 0 1.68422V6.04636C0 6.92721 0.35874 7.7929 0.981902 8.41607L10.1053 17.5395V30.316C10.1057 30.603 10.1792 30.8851 10.3191 31.1357C10.4589 31.3862 10.6604 31.597 10.9044 31.7479C11.1484 31.8988 11.427 31.985 11.7136 31.9982C12.0003 32.0114 12.2855 31.9513 12.5424 31.8234L19.2793 28.455C19.8503 28.1686 20.2107 27.5859 20.2107 26.9476V17.5395L29.3341 8.41607C29.9573 7.7929 30.316 6.92721 30.316 6.04636V1.68422C30.316 1.23754 30.1386 0.809151 29.8227 0.493298C29.5069 0.177444 29.0785 0 28.6318 0ZM17.3357 15.6515C17.179 15.8076 17.0547 15.9932 16.97 16.1976C16.8854 16.4019 16.8419 16.621 16.8422 16.8422V25.9067L13.4738 27.591V16.8422C13.4741 16.621 13.4307 16.4019 13.346 16.1976C13.2613 15.9932 13.137 15.8076 12.9803 15.6515L3.36845 6.04636V3.36845H26.9493L26.9526 6.03457L17.3357 15.6515Z" fill="#052441"/>
</svg>
