<svg width="25" height="25" viewBox="0 0 36 32" fill="none" xmlns="http://www.w3.org/2000/svg">
<path fill-rule="evenodd" clip-rule="evenodd" d="M3.375 1.9375C3.375 1.48995 3.19721 1.06072 2.88074 0.744257C2.56428 0.42779 2.13505 0.25 1.6875 0.25C1.23995 0.25 0.810725 0.42779 0.494257 0.744257C0.17779 1.06072 0 1.48995 0 1.9375L0 30.0625C0 30.994 0.756 31.75 1.6875 31.75H34.3125C34.7601 31.75 35.1893 31.5722 35.5057 31.2557C35.8222 30.9393 36 30.5101 36 30.0625C36 29.6149 35.8222 29.1857 35.5057 28.8693C35.1893 28.5528 34.7601 28.375 34.3125 28.375H3.375V1.9375ZM35.505 7.63C35.8031 7.31011 35.9654 6.887 35.9576 6.44982C35.9499 6.01265 35.7728 5.59553 35.4636 5.28635C35.1545 4.97717 34.7374 4.80007 34.3002 4.79236C33.863 4.78464 33.4399 4.94692 33.12 5.245L22.5 15.865L16.9425 10.3075C16.6261 9.99149 16.1972 9.81398 15.75 9.81398C15.3028 9.81398 14.8739 9.99149 14.5575 10.3075L7.245 17.62C6.94692 17.9399 6.78464 18.363 6.79236 18.8002C6.80007 19.2374 6.97717 19.6545 7.28635 19.9636C7.59553 20.2728 8.01265 20.4499 8.44982 20.4576C8.887 20.4654 9.31011 20.3031 9.63 20.005L15.75 13.885L21.3075 19.4425C21.6239 19.7585 22.0528 19.936 22.5 19.936C22.9472 19.936 23.3761 19.7585 23.6925 19.4425L35.505 7.63V7.63Z" fill="#F4F7FE"/>
</svg>
