<svg width="32" height="32" viewBox="0 0 32 32" fill="none" xmlns="http://www.w3.org/2000/svg">
<path d="M15.9993 32C7.16769 31.9904 0.00959958 24.8323 0 16.0007V15.6807C0.175992 6.8891 7.41568 -0.113794 16.2073 0.00140102C25.0021 0.119796 32.053 7.31148 31.9954 16.1047C31.9378 24.8995 24.7941 32 15.9993 32ZM15.9737 28.8001H15.9993C19.3928 28.7967 22.6461 27.4459 25.0439 25.0445C27.4416 22.6431 28.7876 19.3878 28.7859 15.9943C28.7842 12.6008 27.435 9.34685 25.0348 6.94787C22.6346 4.5489 19.38 3.20127 15.9865 3.20127C12.593 3.20127 9.33837 4.5489 6.93819 6.94787C4.53802 9.34685 3.18876 12.6008 3.18706 15.9943C3.18537 19.3878 4.53137 22.6431 6.92914 25.0445C9.32692 27.4459 12.5802 28.7967 15.9737 28.8001ZM17.5992 25.6003H14.3994V22.4004H17.5992V25.6003ZM17.5992 20.8005H14.3994C14.3745 19.7773 14.6241 18.7662 15.1221 17.8721C15.62 16.978 16.3483 16.2335 17.2312 15.7159C18.2872 14.9063 19.1992 14.2088 19.1992 12.8008C19.1992 11.9522 18.862 11.1383 18.2619 10.5382C17.6619 9.93811 16.848 9.60098 15.9993 9.60098C15.1506 9.60098 14.3367 9.93811 13.7367 10.5382C13.1366 11.1383 12.7994 11.9522 12.7994 12.8008H9.59958V12.6568C9.61867 10.9595 10.3112 9.33933 11.5249 8.15265C12.7386 6.96597 14.374 6.31003 16.0713 6.32912C17.7686 6.34822 19.3888 7.04079 20.5755 8.25447C21.7622 9.46815 22.4181 11.1035 22.399 12.8008C22.3425 13.6522 22.0873 14.4784 21.6539 15.2133C21.2204 15.9482 20.6208 16.5713 19.9031 17.0327C19.2542 17.44 18.7084 17.9923 18.3087 18.646C17.9089 19.2997 17.6661 20.0372 17.5992 20.8005Z" fill="#052441"/>
</svg>
