<svg width="18" height="18" viewBox="0 0 18 18" fill="none" xmlns="http://www.w3.org/2000/svg">
<path d="M18 18H1C0.734784 18 0.48043 17.8946 0.292893 17.7071C0.105357 17.5196 0 17.2652 0 17V0H2V16H18V18ZM5.373 13L4 11.656L8.856 6.9C9.03985 6.72132 9.28612 6.62136 9.5425 6.62136C9.79887 6.62136 10.0451 6.72132 10.229 6.9L12.456 9.081L16.627 5L18 6.344L13.144 11.1C12.9601 11.2787 12.7139 11.3786 12.4575 11.3786C12.2011 11.3786 11.9549 11.2787 11.771 11.1L9.543 8.918L5.374 13H5.373Z" fill="white"/>
</svg>
