<svg width="17" height="17" viewBox="0 0 17 17" fill="none" xmlns="http://www.w3.org/2000/svg">
<path d="M9.69496 0.506485C13.3774 0.66749 16.333 3.62328 16.4937 7.30568L16.1526 7.254V7.34438H9.65625V0.847566H9.74664L9.69496 0.506485Z" stroke="white"/>
<path d="M8.33069 9.48429H8.33107H14.7458C14.6839 13.3649 11.5187 16.4918 7.62335 16.4918C3.68934 16.4918 0.5 13.3025 0.5 9.36847C0.5 5.57519 3.46523 2.47426 7.20412 2.25725V2.28253L7.48726 2.26427L7.43751 2.59268H7.52789V8.68088C7.52789 8.89385 7.61245 9.09811 7.76299 9.24876C7.91352 9.39941 8.11772 9.48413 8.33069 9.48429ZM14.7681 9.14419L14.7658 9.15208C14.766 9.15136 14.7662 9.1507 14.7664 9.15009L14.7681 9.14419Z" stroke="white"/>
</svg>
