<svg width="13" height="13" viewBox="0 0 13 13" fill="none" xmlns="http://www.w3.org/2000/svg">
<g clip-path="url(#clip0_1032_4806)">
<path d="M9.73133 1.96834C11.2062 3.0185 12.166 4.7361 12.166 6.68007C12.166 9.87257 9.57215 12.4606 6.37203 12.4676C3.17659 12.4746 0.559374 9.87724 0.554692 6.68941C0.552351 4.74544 1.51215 3.02317 2.98463 1.97067C3.25852 1.77698 3.6401 1.85866 3.80397 2.15037L4.17385 2.80614C4.31196 3.05118 4.24642 3.36156 4.01934 3.52958C3.04784 4.24836 2.42748 5.38721 2.42748 6.67774C2.42513 8.83174 4.17151 10.6007 6.36032 10.6007C8.50466 10.6007 10.3072 8.86908 10.2932 6.6544C10.2861 5.44555 9.71495 4.2787 8.69896 3.52725C8.47189 3.35922 8.40868 3.04884 8.5468 2.80614L8.91667 2.15037C9.08054 1.86099 9.45978 1.77464 9.73133 1.96834ZM7.29671 6.86677V1.2659C7.29671 0.955516 7.04623 0.705811 6.73488 0.705811H5.98576C5.67441 0.705811 5.42393 0.955516 5.42393 1.2659V6.86677C5.42393 7.17715 5.67441 7.42686 5.98576 7.42686H6.73488C7.04623 7.42686 7.29671 7.17715 7.29671 6.86677Z" fill="white"/>
</g>
<defs>
<clipPath id="clip0_1032_4806">
<rect width="11.9858" height="11.9485" fill="white" transform="translate(0.367188 0.705811)"/>
</clipPath>
</defs>
</svg>
