<svg width="21" height="15" viewBox="0 0 21 15" fill="none" xmlns="http://www.w3.org/2000/svg">
<mask id="path-1-inside-1_1752_7073" fill="white">
<path d="M0.0424614 7.64235C1.71189 3.21942 5.40116 0 10.5 0C11.7993 0 13.0068 0.209991 14.1145 0.594536C14.0291 0.679989 13.9518 0.773129 13.8835 0.872774L13.3034 1.71274C12.6045 1.50434 11.8841 1.37664 11.1562 1.33213V4.59355C11.1562 4.76759 11.0871 4.9345 10.964 5.05757C10.841 5.18063 10.674 5.24977 10.5 5.24977C10.326 5.24977 10.159 5.18063 10.036 5.05757C9.91292 4.9345 9.84378 4.76759 9.84378 4.59355V1.33344C6.90522 1.51718 4.52576 2.94774 2.88259 5.13821C2.93108 5.15889 2.9769 5.18533 3.01908 5.21696L4.98774 6.69345C5.12698 6.79788 5.21902 6.95333 5.24364 7.12563C5.26825 7.29792 5.22341 7.47293 5.11899 7.61216C5.01456 7.7514 4.85911 7.84344 4.68681 7.86806C4.51452 7.89267 4.33951 7.84783 4.20028 7.74341L2.23161 6.26691C2.20955 6.25073 2.18851 6.23319 2.16862 6.21441C1.8169 6.819 1.51661 7.45208 1.27091 8.10695C1.2093 8.26986 1.0855 8.40161 0.926743 8.47324C0.767989 8.54486 0.587284 8.55049 0.424382 8.48888C0.26148 8.42726 0.129725 8.30346 0.0581006 8.14471C-0.0135234 7.98596 -0.019149 7.80525 0.0424614 7.64235ZM17.3601 2.64326C17.3798 2.59076 17.3956 2.53564 17.41 2.48183C18.9849 3.81264 20.1871 5.59888 20.9575 7.64235C20.988 7.72301 21.0024 7.80889 20.9997 7.89508C20.997 7.98128 20.9774 8.0661 20.9419 8.14471C20.9064 8.22332 20.8558 8.29417 20.793 8.35322C20.7301 8.41227 20.6563 8.45837 20.5756 8.48888C20.495 8.51938 20.4091 8.5337 20.3229 8.53102C20.2367 8.52833 20.1519 8.5087 20.0733 8.47324C19.9946 8.43777 19.9238 8.38717 19.8647 8.32432C19.8057 8.26148 19.7596 8.18761 19.7291 8.10695C19.4835 7.45162 19.1832 6.8181 18.8314 6.2131C18.8115 6.23236 18.7905 6.25033 18.7684 6.26691L16.7997 7.74341C16.7308 7.79511 16.6523 7.83273 16.5688 7.85412C16.4854 7.87551 16.3985 7.88024 16.3132 7.86806C16.2279 7.85587 16.1458 7.827 16.0716 7.78309C15.9975 7.73919 15.9327 7.6811 15.881 7.61216C15.8293 7.54322 15.7917 7.46477 15.7703 7.38129C15.7489 7.29781 15.7442 7.21094 15.7564 7.12563C15.7685 7.04032 15.7974 6.95824 15.8413 6.88409C15.8852 6.80994 15.9433 6.74516 16.0123 6.69345L17.9809 5.21696C18.0235 5.18526 18.0698 5.15882 18.1187 5.13821C17.7662 4.66689 17.3736 4.2269 16.9454 3.82314L17.3601 2.64326ZM15.78 1.40431C15.9213 1.47637 16.0317 1.59716 16.0908 1.74434C16.1499 1.89152 16.1537 2.05513 16.1015 2.2049L12.6393 12.0902C12.4769 12.5537 12.2373 12.9863 11.9306 13.3698C10.5 15.16 7.68219 13.5969 8.40009 11.4445C8.52894 11.0578 8.71139 10.6911 8.94213 10.3552L14.9413 1.61955C15.0313 1.48821 15.1661 1.39409 15.3204 1.35473C15.4747 1.31537 15.638 1.33346 15.78 1.40563V1.40431ZM13.2351 6.42178L10.0236 11.098C9.86215 11.3316 9.73485 11.5889 9.64429 11.8592C9.38311 12.6428 10.4029 13.1782 10.9055 12.5509C11.1208 12.2818 11.2875 11.98 11.4016 11.6558L13.2351 6.42178Z"/>
</mask>
<path d="M0.0424614 7.64235C1.71189 3.21942 5.40116 0 10.5 0C11.7993 0 13.0068 0.209991 14.1145 0.594536C14.0291 0.679989 13.9518 0.773129 13.8835 0.872774L13.3034 1.71274C12.6045 1.50434 11.8841 1.37664 11.1562 1.33213V4.59355C11.1562 4.76759 11.0871 4.9345 10.964 5.05757C10.841 5.18063 10.674 5.24977 10.5 5.24977C10.326 5.24977 10.159 5.18063 10.036 5.05757C9.91292 4.9345 9.84378 4.76759 9.84378 4.59355V1.33344C6.90522 1.51718 4.52576 2.94774 2.88259 5.13821C2.93108 5.15889 2.9769 5.18533 3.01908 5.21696L4.98774 6.69345C5.12698 6.79788 5.21902 6.95333 5.24364 7.12563C5.26825 7.29792 5.22341 7.47293 5.11899 7.61216C5.01456 7.7514 4.85911 7.84344 4.68681 7.86806C4.51452 7.89267 4.33951 7.84783 4.20028 7.74341L2.23161 6.26691C2.20955 6.25073 2.18851 6.23319 2.16862 6.21441C1.8169 6.819 1.51661 7.45208 1.27091 8.10695C1.2093 8.26986 1.0855 8.40161 0.926743 8.47324C0.767989 8.54486 0.587284 8.55049 0.424382 8.48888C0.26148 8.42726 0.129725 8.30346 0.0581006 8.14471C-0.0135234 7.98596 -0.019149 7.80525 0.0424614 7.64235ZM17.3601 2.64326C17.3798 2.59076 17.3956 2.53564 17.41 2.48183C18.9849 3.81264 20.1871 5.59888 20.9575 7.64235C20.988 7.72301 21.0024 7.80889 20.9997 7.89508C20.997 7.98128 20.9774 8.0661 20.9419 8.14471C20.9064 8.22332 20.8558 8.29417 20.793 8.35322C20.7301 8.41227 20.6563 8.45837 20.5756 8.48888C20.495 8.51938 20.4091 8.5337 20.3229 8.53102C20.2367 8.52833 20.1519 8.5087 20.0733 8.47324C19.9946 8.43777 19.9238 8.38717 19.8647 8.32432C19.8057 8.26148 19.7596 8.18761 19.7291 8.10695C19.4835 7.45162 19.1832 6.8181 18.8314 6.2131C18.8115 6.23236 18.7905 6.25033 18.7684 6.26691L16.7997 7.74341C16.7308 7.79511 16.6523 7.83273 16.5688 7.85412C16.4854 7.87551 16.3985 7.88024 16.3132 7.86806C16.2279 7.85587 16.1458 7.827 16.0716 7.78309C15.9975 7.73919 15.9327 7.6811 15.881 7.61216C15.8293 7.54322 15.7917 7.46477 15.7703 7.38129C15.7489 7.29781 15.7442 7.21094 15.7564 7.12563C15.7685 7.04032 15.7974 6.95824 15.8413 6.88409C15.8852 6.80994 15.9433 6.74516 16.0123 6.69345L17.9809 5.21696C18.0235 5.18526 18.0698 5.15882 18.1187 5.13821C17.7662 4.66689 17.3736 4.2269 16.9454 3.82314L17.3601 2.64326ZM15.78 1.40431C15.9213 1.47637 16.0317 1.59716 16.0908 1.74434C16.1499 1.89152 16.1537 2.05513 16.1015 2.2049L12.6393 12.0902C12.4769 12.5537 12.2373 12.9863 11.9306 13.3698C10.5 15.16 7.68219 13.5969 8.40009 11.4445C8.52894 11.0578 8.71139 10.6911 8.94213 10.3552L14.9413 1.61955C15.0313 1.48821 15.1661 1.39409 15.3204 1.35473C15.4747 1.31537 15.638 1.33346 15.78 1.40563V1.40431ZM13.2351 6.42178L10.0236 11.098C9.86215 11.3316 9.73485 11.5889 9.64429 11.8592C9.38311 12.6428 10.4029 13.1782 10.9055 12.5509C11.1208 12.2818 11.2875 11.98 11.4016 11.6558L13.2351 6.42178Z" fill="#124251"/>
<path d="M14.1145 0.594536L15.5293 2.00815L17.7841 -0.248604L14.7704 -1.29485L14.1145 0.594536ZM13.8835 0.872774L15.5292 2.00933L15.5333 2.00335L13.8835 0.872774ZM13.3034 1.71274L12.7318 3.62934L14.1237 4.04438L14.9491 2.84928L13.3034 1.71274ZM11.1562 1.33213L11.2783 -0.664142L9.15622 -0.793911V1.33213H11.1562ZM9.84378 1.33344H11.8438V-0.795521L9.71897 -0.662661L9.84378 1.33344ZM2.88259 5.13821L1.2827 3.93806L-0.247248 5.97758L2.09793 6.97786L2.88259 5.13821ZM3.01908 5.21696L4.21908 3.61696L4.21891 3.61683L3.01908 5.21696ZM4.98774 6.69345L3.78774 8.29345L4.98774 6.69345ZM4.20028 7.74341L3.00028 9.34341L4.20028 7.74341ZM2.23161 6.26691L3.43161 4.66691L3.42308 4.66051L3.41448 4.6542L2.23161 6.26691ZM2.16862 6.21441L3.54158 4.76012L1.70791 3.02899L0.439863 5.20872L2.16862 6.21441ZM1.27091 8.10695L3.14159 8.81446L3.14345 8.80951L1.27091 8.10695ZM17.41 2.48183L18.7009 0.954186L16.2946 -1.07907L15.4783 1.96357L17.41 2.48183ZM20.9575 7.64235L19.0861 8.34789L19.0869 8.34985L20.9575 7.64235ZM19.7291 8.10695L17.8563 8.80887L17.8584 8.81446L19.7291 8.10695ZM18.8314 6.2131L20.5603 5.20775L19.274 2.99553L17.4381 4.77828L18.8314 6.2131ZM18.7684 6.26691L17.569 4.66643L17.5684 4.66691L18.7684 6.26691ZM16.7997 7.74341L17.9997 9.34341L16.7997 7.74341ZM16.0123 6.69345L17.2123 8.29345L16.0123 6.69345ZM17.9809 5.21696L16.7871 3.61234L16.7809 3.61696L17.9809 5.21696ZM18.1187 5.13821L18.8951 6.98139L21.2522 5.98857L19.7203 3.94035L18.1187 5.13821ZM16.9454 3.82314L15.0586 3.15992L14.6274 4.38648L15.5734 5.27836L16.9454 3.82314ZM15.78 1.40431L16.6885 -0.377404L13.78 -1.86058V1.40431H15.78ZM16.1015 2.2049L17.9891 2.86601L17.9901 2.86319L16.1015 2.2049ZM12.6393 12.0902L14.5268 12.7514L14.5269 12.7513L12.6393 12.0902ZM11.9306 13.3698L10.3687 12.1206L10.3682 12.1213L11.9306 13.3698ZM8.40009 11.4445L10.2973 12.0773L10.2975 12.0767L8.40009 11.4445ZM8.94213 10.3552L10.5908 11.4874L10.5908 11.4874L8.94213 10.3552ZM14.9413 1.61955L16.59 2.75177L16.5909 2.75038L14.9413 1.61955ZM15.78 1.40563L14.8736 3.18845L17.78 4.66605V1.40563H15.78ZM10.0236 11.098L11.669 12.235L11.6722 12.2303L10.0236 11.098ZM9.64429 11.8592L7.74784 11.224L7.74692 11.2268L9.64429 11.8592ZM10.9055 12.5509L12.4663 13.8015L12.4673 13.8003L10.9055 12.5509ZM11.4016 11.6558L13.2881 12.3202L13.2892 12.317L11.4016 11.6558ZM1.91361 8.34861C3.34829 4.54761 6.389 2 10.5 2V-2C4.41332 -2 0.075484 1.89123 -1.82869 6.93609L1.91361 8.34861ZM10.5 2C11.5808 2 12.5662 2.17414 13.4586 2.48392L14.7704 -1.29485C13.4473 -1.75416 12.0179 -2 10.5 -2V2ZM12.6997 -0.819082C12.5274 -0.646699 12.3714 -0.45881 12.2337 -0.257801L15.5333 2.00335C15.5321 2.00507 15.5308 2.00668 15.5293 2.00815L12.6997 -0.819082ZM12.2378 -0.263774L11.6577 0.576188L14.9491 2.84928L15.5292 2.00932L12.2378 -0.263774ZM13.8749 -0.203864C13.0298 -0.455881 12.1586 -0.610313 11.2783 -0.664142L11.0341 3.3284C11.6097 3.36359 12.1793 3.46456 12.7318 3.62934L13.8749 -0.203864ZM9.15622 1.33213V4.59355H13.1562V1.33213H9.15622ZM9.15622 4.59355C9.15622 4.23716 9.29779 3.89536 9.5498 3.64335L12.3782 6.47178C12.8764 5.97364 13.1562 5.29802 13.1562 4.59355H9.15622ZM9.5498 3.64335C9.80182 3.39134 10.1436 3.24977 10.5 3.24977V7.24977C11.2045 7.24977 11.8801 6.96992 12.3782 6.47178L9.5498 3.64335ZM10.5 3.24977C10.8564 3.24977 11.1982 3.39134 11.4502 3.64335L8.62177 6.47178C9.11991 6.96992 9.79553 7.24977 10.5 7.24977V3.24977ZM11.4502 3.64335C11.7022 3.89536 11.8438 4.23716 11.8438 4.59355H7.84378C7.84378 5.29802 8.12363 5.97364 8.62177 6.47178L11.4502 3.64335ZM11.8438 4.59355V1.33344H7.84378V4.59355H11.8438ZM9.71897 -0.662661C6.1497 -0.439483 3.24856 1.31743 1.2827 3.93806L4.48247 6.33836C5.80297 4.57806 7.66074 3.47385 9.96859 3.32954L9.71897 -0.662661ZM2.09793 6.97786C1.99892 6.93563 1.90535 6.88165 1.81925 6.81709L4.21891 3.61683C4.04845 3.48902 3.86324 3.38216 3.66724 3.29856L2.09793 6.97786ZM1.81908 6.81696L3.78774 8.29345L6.18774 5.09345L4.21908 3.61696L1.81908 6.81696ZM3.78774 8.29345C3.50263 8.07962 3.31414 7.76128 3.26374 7.40847L7.22353 6.84278C7.12391 6.14539 6.75132 5.51614 6.18774 5.09345L3.78774 8.29345ZM3.26374 7.40847C3.21334 7.05566 3.30515 6.69728 3.51899 6.41216L6.71899 8.81216C7.14167 8.24858 7.32316 7.54017 7.22353 6.84278L3.26374 7.40847ZM3.51899 6.41216C3.73282 6.12705 4.05116 5.93856 4.40397 5.88816L4.96966 9.84796C5.66705 9.74833 6.2963 9.37574 6.71899 8.81216L3.51899 6.41216ZM4.40397 5.88816C4.75679 5.83776 5.11517 5.92958 5.40028 6.14341L3.00028 9.34341C3.56385 9.76609 4.27226 9.94758 4.96966 9.84796L4.40397 5.88816ZM5.40028 6.14341L3.43161 4.66691L1.03161 7.86691L3.00028 9.34341L5.40028 6.14341ZM3.41448 4.6542C3.45899 4.68685 3.50144 4.72222 3.54158 4.76012L0.795651 7.6687C0.875587 7.74417 0.960115 7.81461 1.04875 7.87962L3.41448 4.6542ZM0.439863 5.20872C0.0318126 5.91015 -0.316579 6.64463 -0.601636 7.4044L3.14345 8.80951C3.3498 8.25953 3.60199 7.72785 3.89737 7.2201L0.439863 5.20872ZM-0.599773 7.39945C-0.473743 7.06622 -0.2205 6.7967 0.104251 6.65019L1.74923 10.2963C2.39149 10.0065 2.89234 9.47349 3.14159 8.81446L-0.599773 7.39945ZM0.104251 6.65019C0.428999 6.50367 0.798649 6.49216 1.13188 6.6182L-0.283119 10.3596C0.375919 10.6088 1.10698 10.586 1.74923 10.2963L0.104251 6.65019ZM1.13188 6.6182C1.46512 6.74423 1.73464 6.99748 1.88115 7.32222L-1.76495 8.9672C-1.47519 9.60945 -0.942163 10.1103 -0.283119 10.3596L1.13188 6.6182ZM1.88115 7.32222C2.02766 7.64697 2.03917 8.01662 1.91314 8.34985L-1.82822 6.93485C-2.07747 7.59389 -2.05471 8.32495 -1.76495 8.9672L1.88115 7.32222ZM19.2328 3.3455C19.2878 3.19894 19.3237 3.06734 19.3417 3.00008L15.4783 1.96357C15.4761 1.97186 15.4746 1.97716 15.4737 1.98062C15.4727 1.98403 15.4725 1.98458 15.473 1.98302C15.4735 1.98144 15.4749 1.97694 15.4771 1.97013C15.4794 1.96331 15.4828 1.95341 15.4875 1.94101L19.2328 3.3455ZM16.1192 4.00947C17.4027 5.09407 18.4208 6.58327 19.0861 8.34789L22.829 6.93681C21.9534 4.61448 20.5672 2.53122 18.7009 0.954186L16.1192 4.00947ZM19.0869 8.34985C19.0245 8.18484 18.9952 8.00917 19.0007 7.83285L22.9987 7.95732C23.0096 7.60861 22.9516 7.26118 22.8282 6.93485L19.0869 8.34985ZM19.0007 7.83285C19.0061 7.65652 19.0463 7.48301 19.1188 7.32222L22.7649 8.9672C22.9084 8.6492 22.9879 8.30604 22.9987 7.95732L19.0007 7.83285ZM19.1188 7.32222C19.1914 7.16143 19.2949 7.01649 19.4235 6.89569L22.1625 9.81075C22.4168 9.57185 22.6215 9.2852 22.7649 8.9672L19.1188 7.32222ZM19.4235 6.89569C19.552 6.7749 19.7031 6.6806 19.8681 6.6182L21.2831 10.3596C21.6095 10.2361 21.9083 10.0496 22.1625 9.81075L19.4235 6.89569ZM19.8681 6.6182C20.0331 6.55579 20.2088 6.5265 20.3851 6.53199L20.2606 10.53C20.6094 10.5409 20.9568 10.483 21.2831 10.3596L19.8681 6.6182ZM20.3851 6.53199C20.5614 6.53748 20.7349 6.57764 20.8957 6.65019L19.2508 10.2963C19.5688 10.4398 19.9119 10.5192 20.2606 10.53L20.3851 6.53199ZM20.8957 6.65019C21.0565 6.72273 21.2015 6.82624 21.3223 6.9548L18.4072 9.69385C18.6461 9.9481 18.9327 10.1528 19.2508 10.2963L20.8957 6.65019ZM21.3223 6.9548C21.4431 7.08336 21.5374 7.23446 21.5998 7.39945L17.8584 8.81446C17.9818 9.14077 18.1683 9.43959 18.4072 9.69385L21.3223 6.9548ZM21.6019 7.40504C21.3169 6.64471 20.9685 5.90969 20.5603 5.20775L17.1024 7.21845C17.3979 7.72652 17.65 8.25853 17.8563 8.80887L21.6019 7.40504ZM17.4381 4.77828C17.4793 4.73822 17.5231 4.70086 17.569 4.66643L19.9677 7.86739C20.0579 7.7998 20.1438 7.7265 20.2247 7.64792L17.4381 4.77828ZM17.5684 4.66691L15.5997 6.14341L17.9997 9.34341L19.9684 7.86691L17.5684 4.66691ZM15.5997 6.14341C15.7409 6.03753 15.9015 5.96049 16.0725 5.91669L17.0652 9.79155C17.4031 9.70498 17.7207 9.5527 17.9997 9.34341L15.5997 6.14341ZM16.0725 5.91669C16.2434 5.8729 16.4213 5.8632 16.596 5.88816L16.0303 9.84796C16.3757 9.89729 16.7273 9.87812 17.0652 9.79155L16.0725 5.91669ZM16.596 5.88816C16.7707 5.91312 16.9388 5.97224 17.0906 6.06214L15.0527 9.50404C15.3528 9.68175 15.685 9.79862 16.0303 9.84796L16.596 5.88816ZM17.0906 6.06214C17.2425 6.15205 17.3751 6.27098 17.481 6.41216L14.281 8.81216C14.4903 9.09123 14.7525 9.32632 15.0527 9.50404L17.0906 6.06214ZM17.481 6.41216C17.5869 6.55333 17.6639 6.71398 17.7077 6.88493L13.8329 7.87765C13.9194 8.21556 14.0717 8.53311 14.281 8.81216L17.481 6.41216ZM17.7077 6.88493C17.7515 7.05587 17.7612 7.23377 17.7363 7.40847L13.7765 6.84278C13.7271 7.1881 13.7463 7.53975 13.8329 7.87765L17.7077 6.88493ZM17.7363 7.40847C17.7113 7.58318 17.6522 7.75125 17.5623 7.90308L14.1204 5.8651C13.9427 6.16524 13.8258 6.49745 13.7765 6.84278L17.7363 7.40847ZM17.5623 7.90308C17.4724 8.05492 17.3534 8.18757 17.2123 8.29345L14.8123 5.09345C14.5332 5.30275 14.2981 5.56496 14.1204 5.8651L17.5623 7.90308ZM17.2123 8.29345L19.1809 6.81696L16.7809 3.61696L14.8123 5.09345L17.2123 8.29345ZM19.1747 6.82157C19.0883 6.88589 18.9944 6.93955 18.8951 6.98139L17.3424 3.29503C17.1452 3.37809 16.9588 3.48463 16.7871 3.61235L19.1747 6.82157ZM19.7203 3.94035C19.2988 3.37679 18.8294 2.85069 18.3174 2.36793L15.5734 5.27836C15.9179 5.6031 16.2336 5.95699 16.5171 6.33607L19.7203 3.94035ZM18.8322 4.48637L19.247 3.30648L15.4733 1.98003L15.0586 3.15992L18.8322 4.48637ZM14.8714 3.18603C14.582 3.03848 14.3559 2.79114 14.2349 2.48974L17.9467 0.998935C17.7074 0.403179 17.2605 -0.0857518 16.6885 -0.377404L14.8714 3.18603ZM14.2349 2.48974C14.1138 2.18835 14.106 1.85331 14.2129 1.54662L17.9901 2.86319C18.2014 2.25695 18.186 1.59469 17.9467 0.998935L14.2349 2.48974ZM14.2139 1.5438L10.7517 11.4291L14.5269 12.7513L17.9891 2.866L14.2139 1.5438ZM10.7517 11.429C10.664 11.6795 10.5345 11.9133 10.3687 12.1206L13.4924 14.6191C13.9401 14.0594 14.2899 13.4279 14.5268 12.7514L10.7517 11.429ZM10.3682 12.1213C10.3511 12.1427 10.3388 12.1543 10.3329 12.1594C10.327 12.1646 10.3254 12.165 10.3286 12.1632C10.3369 12.1584 10.3501 12.1534 10.3631 12.1513C10.3742 12.1496 10.3759 12.1514 10.3669 12.1497C10.3572 12.1478 10.3413 12.143 10.3228 12.1328C10.3044 12.1227 10.2906 12.1112 10.2822 12.1023C10.2742 12.0938 10.2748 12.0917 10.278 12.0989C10.2819 12.1077 10.2845 12.1192 10.2849 12.1279C10.2851 12.1312 10.2847 12.1299 10.2856 12.1231C10.2866 12.1162 10.2894 12.1011 10.2973 12.0773L6.50284 10.8117C5.09931 15.0197 10.626 18.2061 13.493 14.6184L10.3682 12.1213ZM10.2975 12.0767C10.3672 11.8676 10.4659 11.6692 10.5908 11.4874L7.29349 9.22292C6.95684 9.7131 6.69064 10.2481 6.50266 10.8122L10.2975 12.0767ZM10.5908 11.4874L16.59 2.75177L13.2926 0.487337L7.29347 9.22295L10.5908 11.4874ZM16.5909 2.75038C16.4065 3.01933 16.1307 3.21207 15.8147 3.29267L14.826 -0.583214C14.2015 -0.423896 13.6561 -0.0429091 13.2917 0.488728L16.5909 2.75038ZM15.8147 3.29267C15.4987 3.37327 15.1642 3.33623 14.8736 3.18845L16.6863 -0.3772C16.1118 -0.669309 15.4506 -0.742532 14.826 -0.583214L15.8147 3.29267ZM17.78 1.40563V1.40431H13.78V1.40563H17.78ZM11.5865 5.28953L8.37495 9.96576L11.6722 12.2303L14.8838 7.55403L11.5865 5.28953ZM8.3782 9.96103C8.10635 10.3544 7.89607 10.7815 7.74784 11.224L11.5407 12.4944C11.5736 12.3962 11.618 12.3088 11.669 12.235L8.3782 9.96103ZM7.74692 11.2268C6.75557 14.2008 10.6159 16.1109 12.4663 13.8015L9.34476 11.3003C9.78826 10.7468 10.5069 10.742 10.936 10.9728C11.1491 11.0875 11.3601 11.285 11.489 11.5758C11.6287 11.891 11.6303 12.2256 11.5417 12.4917L7.74692 11.2268ZM12.4673 13.8003C12.8245 13.3537 13.1002 12.8537 13.2881 12.3202L9.51524 10.9914C9.47477 11.1063 9.41707 11.2099 9.34381 11.3015L12.4673 13.8003ZM13.2892 12.317L15.1227 7.08298L11.3476 5.76057L9.51411 10.9946L13.2892 12.317Z" fill="white" mask="url(#path-1-inside-1_1752_7073)"/>
</svg>
