<svg width="28" height="28" viewBox="0 0 32 32" fill="none" xmlns="http://www.w3.org/2000/svg">
<path d="M19.0029 32H12.9998C12.6237 32.0001 12.2588 31.8754 11.9658 31.6466C11.6727 31.4179 11.469 31.0989 11.3885 30.7424L10.7173 27.728C9.8219 27.3474 8.97285 26.8714 8.1858 26.3088L5.15624 27.2448C4.79764 27.3557 4.41072 27.3443 4.05972 27.2125C3.70872 27.0807 3.41477 26.8363 3.22668 26.52L0.218553 21.4784C0.0324337 21.1618 -0.0374308 20.7933 0.0203897 20.4332C0.0782102 20.0731 0.260292 19.7427 0.536847 19.496L2.88695 17.416C2.78007 16.4738 2.78007 15.523 2.88695 14.5808L0.536847 12.5056C0.2599 12.2588 0.0775708 11.9281 0.0197409 11.5677C-0.038089 11.2072 0.0320114 10.8384 0.218553 10.5216L3.22008 5.4768C3.40818 5.1605 3.70213 4.91615 4.05312 4.7843C4.40412 4.65246 4.79104 4.64106 5.14964 4.752L8.17921 5.688C8.58161 5.4 9.00051 5.1312 9.43259 4.888C9.84984 4.6608 10.2786 4.4544 10.7173 4.2704L11.3902 1.2592C11.4703 0.902716 11.6736 0.5835 11.9663 0.354478C12.2591 0.125456 12.6237 0.000383946 12.9998 0H19.0029C19.3789 0.000383946 19.7436 0.125456 20.0363 0.354478C20.3291 0.5835 20.5324 0.902716 20.6125 1.2592L21.2919 4.272C22.1868 4.65264 23.0353 5.12863 23.8218 5.6912L26.853 4.7552C27.2114 4.64467 27.5979 4.65627 27.9486 4.7881C28.2992 4.91992 28.5929 5.16405 28.7809 5.48L31.7825 10.5248C32.1651 11.176 32.0331 12 31.4642 12.5072L29.1141 14.5872C29.2209 15.5294 29.2209 16.4802 29.1141 17.4224L31.4642 19.5024C32.0331 20.0112 32.1651 20.8336 31.7825 21.4848L28.7809 26.5296C28.5928 26.8459 28.2989 27.0903 27.9479 27.2221C27.5969 27.3539 27.21 27.3653 26.8514 27.2544L23.8218 26.3184C23.0354 26.8806 22.1868 27.356 21.2919 27.736L20.6125 30.7424C20.532 31.0986 20.3286 31.4174 20.0359 31.6461C19.7432 31.8749 19.3787 31.9997 19.0029 32ZM8.77786 22.7664L10.1302 23.7264C10.4353 23.944 10.7519 24.144 11.0818 24.3264C11.3918 24.5008 11.7085 24.6576 12.0367 24.8L13.5754 25.4544L14.329 28.8H17.6769L18.4306 25.4528L19.9693 24.7984C20.6405 24.5104 21.2787 24.1536 21.8708 23.7328L23.2231 22.7728L26.5908 23.8128L28.2647 21L25.6541 18.6912L25.8388 17.072C25.9212 16.3632 25.9212 15.648 25.8388 14.9408L25.6541 13.3216L28.2664 11.008L26.5908 8.1936L23.2248 9.2336L21.8708 8.2736C21.2784 7.85071 20.6409 7.49077 19.9693 7.2L18.4306 6.5456L17.6769 3.2H14.329L13.5704 6.5472L12.0367 7.2C11.3641 7.48577 10.7264 7.84317 10.1351 8.2656L8.78116 9.2256L5.41681 8.1856L3.73958 11.008L6.35025 13.3136L6.16554 14.9344C6.08308 15.6432 6.08308 16.3584 6.16554 17.0656L6.35025 18.6848L3.73958 20.9936L5.41351 23.8064L8.77786 22.7664ZM15.9947 22.4C14.2452 22.4 12.5672 21.7257 11.3301 20.5255C10.093 19.3253 9.39796 17.6974 9.39796 16C9.39796 14.3026 10.093 12.6747 11.3301 11.4745C12.5672 10.2743 14.2452 9.6 15.9947 9.6C17.7443 9.6 19.4222 10.2743 20.6594 11.4745C21.8965 12.6747 22.5915 14.3026 22.5915 16C22.5915 17.6974 21.8965 19.3253 20.6594 20.5255C19.4222 21.7257 17.7443 22.4 15.9947 22.4ZM15.9947 12.8C15.3488 12.8006 14.7173 12.9852 14.1786 13.3309C13.6399 13.6766 13.2176 14.1681 12.9642 14.7445C12.7108 15.3208 12.6373 15.9567 12.753 16.5732C12.8687 17.1897 13.1685 17.7597 13.615 18.2124C14.0616 18.6651 14.6353 18.9807 15.2651 19.12C15.8948 19.2592 16.5528 19.2161 17.1575 18.9958C17.7622 18.7755 18.2869 18.3878 18.6665 17.8809C19.0462 17.3739 19.2641 16.77 19.2931 16.144V16.784V16C19.2931 15.1513 18.9456 14.3374 18.327 13.7373C17.7085 13.1371 16.8695 12.8 15.9947 12.8Z" fill="#FFF"/>
</svg>
