<svg width="28" height="19" viewBox="0 0 28 19" fill="none" xmlns="http://www.w3.org/2000/svg">
<mask id="path-1-inside-1_985_5989" fill="white">
<path d="M0.0554531 9.98064C2.23567 4.20445 7.05373 0 13.7126 0C15.4095 0 16.9864 0.274241 18.433 0.776444C18.3215 0.888042 18.2205 1.00968 18.1313 1.13981L17.3737 2.23677C16.4611 1.96462 15.5202 1.79784 14.5696 1.73971V5.99901C14.5696 6.2263 14.4793 6.44428 14.3186 6.605C14.1579 6.76572 13.9399 6.85601 13.7126 6.85601C13.4853 6.85601 13.2674 6.76572 13.1066 6.605C12.9459 6.44428 12.8556 6.2263 12.8556 5.99901V1.74143C9.01798 1.98139 5.91049 3.84965 3.76456 6.71032C3.82788 6.73733 3.88773 6.77186 3.94281 6.81316L6.51382 8.74142C6.69565 8.87779 6.81586 9.08081 6.848 9.30582C6.88015 9.53082 6.82159 9.75939 6.68522 9.94122C6.54884 10.1231 6.34582 10.2433 6.12081 10.2754C5.89581 10.3075 5.66725 10.249 5.48541 10.1126L2.91441 8.18436C2.8856 8.16323 2.85812 8.14033 2.83214 8.1158C2.37281 8.90538 1.98064 9.73215 1.65976 10.5874C1.5793 10.8001 1.41762 10.9722 1.21029 11.0657C1.00297 11.1593 0.766972 11.1666 0.554228 11.0862C0.341483 11.0057 0.169416 10.844 0.0758774 10.6367C-0.017661 10.4294 -0.0250079 10.1934 0.0554531 9.98064ZM22.6717 3.452C22.6974 3.38344 22.718 3.31145 22.7369 3.24118C24.7937 4.97918 26.3637 7.31194 27.3698 9.98064C27.4096 10.086 27.4284 10.1981 27.4248 10.3107C27.4213 10.4233 27.3957 10.534 27.3494 10.6367C27.3031 10.7394 27.237 10.8319 27.1549 10.909C27.0728 10.9861 26.9764 11.0463 26.871 11.0862C26.7657 11.126 26.6535 11.1447 26.541 11.1412C26.4284 11.1377 26.3176 11.1121 26.215 11.0657C26.1123 11.0194 26.0198 10.9534 25.9427 10.8713C25.8655 10.7892 25.8053 10.6927 25.7655 10.5874C25.4447 9.73155 25.0526 8.9042 24.5931 8.11409C24.5672 8.13924 24.5397 8.16271 24.5108 8.18436L21.9398 10.1126C21.8498 10.1801 21.7474 10.2293 21.6383 10.2572C21.5293 10.2851 21.4159 10.2913 21.3044 10.2754C21.193 10.2595 21.0858 10.2218 20.989 10.1644C20.8922 10.1071 20.8076 10.0313 20.74 9.94122C20.6725 9.85118 20.6234 9.74873 20.5955 9.63971C20.5675 9.53069 20.5613 9.41723 20.5773 9.30582C20.5932 9.19441 20.6309 9.08722 20.6882 8.99038C20.7456 8.89354 20.8214 8.80894 20.9114 8.74142L23.4824 6.81316C23.5381 6.77177 23.5985 6.73724 23.6624 6.71032C23.2021 6.09479 22.6894 5.52018 22.1301 4.99289L22.6717 3.452ZM20.6081 1.83398C20.7926 1.92808 20.9368 2.08583 21.014 2.27804C21.0912 2.47026 21.0962 2.68393 21.028 2.87952L16.5065 15.7894C16.2944 16.3947 15.9815 16.9597 15.5809 17.4606C13.7126 19.7985 10.0327 17.7571 10.9702 14.9461C11.1385 14.4411 11.3768 13.9623 11.6781 13.5235L19.5128 2.11508C19.6304 1.94355 19.8063 1.82063 20.0079 1.76923C20.2094 1.71783 20.4227 1.74145 20.6081 1.8357V1.83398ZM17.2846 8.38662L13.0904 14.4936C12.8796 14.7987 12.7134 15.1346 12.5951 15.4877C12.254 16.511 13.5858 17.2103 14.2423 16.391C14.5234 16.0396 14.741 15.6454 14.8902 15.2221L17.2846 8.38662Z"/>
</mask>
<path d="M0.0554531 9.98064C2.23567 4.20445 7.05373 0 13.7126 0C15.4095 0 16.9864 0.274241 18.433 0.776444C18.3215 0.888042 18.2205 1.00968 18.1313 1.13981L17.3737 2.23677C16.4611 1.96462 15.5202 1.79784 14.5696 1.73971V5.99901C14.5696 6.2263 14.4793 6.44428 14.3186 6.605C14.1579 6.76572 13.9399 6.85601 13.7126 6.85601C13.4853 6.85601 13.2674 6.76572 13.1066 6.605C12.9459 6.44428 12.8556 6.2263 12.8556 5.99901V1.74143C9.01798 1.98139 5.91049 3.84965 3.76456 6.71032C3.82788 6.73733 3.88773 6.77186 3.94281 6.81316L6.51382 8.74142C6.69565 8.87779 6.81586 9.08081 6.848 9.30582C6.88015 9.53082 6.82159 9.75939 6.68522 9.94122C6.54884 10.1231 6.34582 10.2433 6.12081 10.2754C5.89581 10.3075 5.66725 10.249 5.48541 10.1126L2.91441 8.18436C2.8856 8.16323 2.85812 8.14033 2.83214 8.1158C2.37281 8.90538 1.98064 9.73215 1.65976 10.5874C1.5793 10.8001 1.41762 10.9722 1.21029 11.0657C1.00297 11.1593 0.766972 11.1666 0.554228 11.0862C0.341483 11.0057 0.169416 10.844 0.0758774 10.6367C-0.017661 10.4294 -0.0250079 10.1934 0.0554531 9.98064ZM22.6717 3.452C22.6974 3.38344 22.718 3.31145 22.7369 3.24118C24.7937 4.97918 26.3637 7.31194 27.3698 9.98064C27.4096 10.086 27.4284 10.1981 27.4248 10.3107C27.4213 10.4233 27.3957 10.534 27.3494 10.6367C27.3031 10.7394 27.237 10.8319 27.1549 10.909C27.0728 10.9861 26.9764 11.0463 26.871 11.0862C26.7657 11.126 26.6535 11.1447 26.541 11.1412C26.4284 11.1377 26.3176 11.1121 26.215 11.0657C26.1123 11.0194 26.0198 10.9534 25.9427 10.8713C25.8655 10.7892 25.8053 10.6927 25.7655 10.5874C25.4447 9.73155 25.0526 8.9042 24.5931 8.11409C24.5672 8.13924 24.5397 8.16271 24.5108 8.18436L21.9398 10.1126C21.8498 10.1801 21.7474 10.2293 21.6383 10.2572C21.5293 10.2851 21.4159 10.2913 21.3044 10.2754C21.193 10.2595 21.0858 10.2218 20.989 10.1644C20.8922 10.1071 20.8076 10.0313 20.74 9.94122C20.6725 9.85118 20.6234 9.74873 20.5955 9.63971C20.5675 9.53069 20.5613 9.41723 20.5773 9.30582C20.5932 9.19441 20.6309 9.08722 20.6882 8.99038C20.7456 8.89354 20.8214 8.80894 20.9114 8.74142L23.4824 6.81316C23.5381 6.77177 23.5985 6.73724 23.6624 6.71032C23.2021 6.09479 22.6894 5.52018 22.1301 4.99289L22.6717 3.452ZM20.6081 1.83398C20.7926 1.92808 20.9368 2.08583 21.014 2.27804C21.0912 2.47026 21.0962 2.68393 21.028 2.87952L16.5065 15.7894C16.2944 16.3947 15.9815 16.9597 15.5809 17.4606C13.7126 19.7985 10.0327 17.7571 10.9702 14.9461C11.1385 14.4411 11.3768 13.9623 11.6781 13.5235L19.5128 2.11508C19.6304 1.94355 19.8063 1.82063 20.0079 1.76923C20.2094 1.71783 20.4227 1.74145 20.6081 1.8357V1.83398ZM17.2846 8.38662L13.0904 14.4936C12.8796 14.7987 12.7134 15.1346 12.5951 15.4877C12.254 16.511 13.5858 17.2103 14.2423 16.391C14.5234 16.0396 14.741 15.6454 14.8902 15.2221L17.2846 8.38662Z" fill="#052441"/>
<path d="M18.433 0.776444L19.8478 2.19006L22.1027 -0.0666971L19.0889 -1.11294L18.433 0.776444ZM18.1313 1.13981L19.777 2.27637L19.7811 2.27039L18.1313 1.13981ZM17.3737 2.23677L16.8022 4.15337L18.1941 4.56842L19.0194 3.37332L17.3737 2.23677ZM14.5696 1.73971L14.6917 -0.256558L12.5696 -0.386327V1.73971H14.5696ZM12.8556 1.74143H14.8556V-0.387535L12.7308 -0.254675L12.8556 1.74143ZM3.76456 6.71032L2.16467 5.51017L0.634722 7.54969L2.9799 8.54997L3.76456 6.71032ZM3.94281 6.81316L5.14281 5.21316L5.14264 5.21303L3.94281 6.81316ZM6.51382 8.74142L5.31382 10.3414L6.51382 8.74142ZM5.48541 10.1126L4.28541 11.7126L5.48541 10.1126ZM2.91441 8.18436L4.11441 6.58436L4.10588 6.57796L4.09728 6.57166L2.91441 8.18436ZM2.83214 8.1158L4.2051 6.66151L2.37143 4.93038L1.10338 7.11012L2.83214 8.1158ZM1.65976 10.5874L3.53045 11.2949L3.5323 11.29L1.65976 10.5874ZM22.7369 3.24118L24.0277 1.71354L21.6215 -0.319721L20.8052 2.72292L22.7369 3.24118ZM27.3698 9.98064L25.4984 10.6862L25.4991 10.6881L27.3698 9.98064ZM25.7655 10.5874L23.8927 11.2893L23.8948 11.2949L25.7655 10.5874ZM24.5931 8.11409L26.3221 7.10874L25.0357 4.89652L23.1998 6.67927L24.5931 8.11409ZM24.5108 8.18436L23.3115 6.58388L23.3108 6.58436L24.5108 8.18436ZM21.9398 10.1126L23.1398 11.7126V11.7126L21.9398 10.1126ZM20.9114 8.74142L22.1114 10.3414L20.9114 8.74142ZM23.4824 6.81316L22.2886 5.20854L22.2824 5.21316L23.4824 6.81316ZM23.6624 6.71032L24.4388 8.5535L26.7959 7.56068L25.264 5.51246L23.6624 6.71032ZM22.1301 4.99289L20.2433 4.32967L19.8121 5.55623L20.7581 6.44811L22.1301 4.99289ZM20.6081 1.83398L21.5166 0.0522663L18.6081 -1.43091V1.83398H20.6081ZM21.028 2.87952L22.9156 3.54063L22.9166 3.53781L21.028 2.87952ZM16.5065 15.7894L18.394 16.4506L18.394 16.4505L16.5065 15.7894ZM15.5809 17.4606L14.019 16.2113L14.0185 16.212L15.5809 17.4606ZM10.9702 14.9461L12.8675 15.5789L12.8677 15.5784L10.9702 14.9461ZM11.6781 13.5235L13.3267 14.6557L13.3268 14.6557L11.6781 13.5235ZM19.5128 2.11508L21.1615 3.2473L21.1624 3.24591L19.5128 2.11508ZM20.6081 1.8357L19.7017 3.61852L22.6081 5.09612V1.8357H20.6081ZM13.0904 14.4936L14.7358 15.6306L14.7391 15.6259L13.0904 14.4936ZM12.5951 15.4877L10.6987 14.8525L10.6977 14.8553L12.5951 15.4877ZM14.2423 16.391L15.803 17.6416L15.804 17.6404L14.2423 16.391ZM14.8902 15.2221L16.7766 15.8865L16.7777 15.8833L14.8902 15.2221ZM1.9266 10.6869C3.87207 5.53264 8.04157 2 13.7126 2V-2C6.06589 -2 0.599261 2.87626 -1.81569 9.27438L1.9266 10.6869ZM13.7126 2C15.191 2 16.5458 2.23839 17.7771 2.66583L19.0889 -1.11294C17.4269 -1.68991 15.628 -2 13.7126 -2V2ZM17.0182 -0.637175C16.8198 -0.438646 16.6402 -0.22226 16.4815 0.00923729L19.7811 2.27039C19.8008 2.24162 19.8232 2.21473 19.8478 2.19006L17.0182 -0.637175ZM16.4857 0.00326384L15.7281 1.10023L19.0194 3.37332L19.777 2.27636L16.4857 0.00326384ZM17.9453 0.320173C16.8863 0.00439462 15.7947 -0.189109 14.6917 -0.256558L14.4476 3.73598C15.2458 3.7848 16.0358 3.92484 16.8022 4.15337L17.9453 0.320173ZM12.5696 1.73971V5.99901H16.5696V1.73971H12.5696ZM12.5696 5.99901C12.5696 5.69587 12.6901 5.40515 12.9044 5.19079L15.7328 8.01922C16.2686 7.48342 16.5696 6.75673 16.5696 5.99901H12.5696ZM12.9044 5.19079C13.1188 4.97643 13.4095 4.85601 13.7126 4.85601V8.85601C14.4703 8.85601 15.197 8.55501 15.7328 8.01922L12.9044 5.19079ZM13.7126 4.85601C14.0158 4.85601 14.3065 4.97643 14.5209 5.19079L11.6924 8.01922C12.2282 8.55501 12.9549 8.85601 13.7126 8.85601V4.85601ZM14.5209 5.19079C14.7352 5.40515 14.8556 5.69587 14.8556 5.99901H10.8556C10.8556 6.75673 11.1566 7.48342 11.6924 8.01922L14.5209 5.19079ZM14.8556 5.99901V1.74143H10.8556V5.99901H14.8556ZM12.7308 -0.254675C8.26246 0.0247221 4.63329 2.21934 2.16467 5.51017L5.36444 7.91048C7.18769 5.47996 9.77349 3.93805 12.9804 3.73753L12.7308 -0.254675ZM2.9799 8.54997C2.89572 8.51407 2.81618 8.46818 2.74298 8.41329L5.14264 5.21303C4.95928 5.07554 4.76004 4.9606 4.54921 4.87067L2.9799 8.54997ZM2.74281 8.41316L5.31382 10.3414L7.71382 7.14142L5.14281 5.21316L2.74281 8.41316ZM5.31382 10.3414C5.0713 10.1595 4.91098 9.88876 4.8681 9.58866L8.8279 9.02297C8.72074 8.27287 8.31999 7.59605 7.71382 7.14142L5.31382 10.3414ZM4.8681 9.58866C4.82523 9.28857 4.90333 8.98374 5.08522 8.74122L8.28522 11.1412C8.73985 10.535 8.93506 9.77308 8.8279 9.02297L4.8681 9.58866ZM5.08522 8.74122C5.2671 8.4987 5.53788 8.33838 5.83797 8.29551L6.40366 12.2553C7.15377 12.1481 7.83058 11.7474 8.28522 11.1412L5.08522 8.74122ZM5.83797 8.29551C6.13807 8.25264 6.44291 8.33074 6.68541 8.51262L4.28541 11.7126C4.89159 12.1672 5.65354 12.3625 6.40366 12.2553L5.83797 8.29551ZM6.68541 8.51262L4.11441 6.58436L1.71441 9.78436L4.28541 11.7126L6.68541 8.51262ZM4.09728 6.57166C4.13504 6.59935 4.17105 6.62936 4.2051 6.66151L1.45917 9.5701C1.54519 9.65131 1.63616 9.72711 1.73154 9.79707L4.09728 6.57166ZM1.10338 7.11012C0.587721 7.99653 0.14745 8.9247 -0.212783 9.88484L3.5323 11.29C3.81383 10.5396 4.1579 9.81423 4.56089 9.12149L1.10338 7.11012ZM-0.21092 9.8799C-0.103741 9.59651 0.111624 9.3673 0.387802 9.2427L2.03279 12.8888C2.72362 12.5771 3.26234 12.0038 3.53044 11.2949L-0.21092 9.8799ZM0.387802 9.2427C0.663977 9.1181 0.978337 9.10831 1.26173 9.21549L-0.153273 12.9569C0.555607 13.225 1.34196 13.2005 2.03279 12.8888L0.387802 9.2427ZM1.26173 9.21549C1.54513 9.32268 1.77433 9.53804 1.89893 9.81421L-1.74717 11.4592C-1.4355 12.15 -0.86216 12.6887 -0.153273 12.9569L1.26173 9.21549ZM1.89893 9.81421C2.02353 10.0904 2.03331 10.4047 1.92613 10.6881L-1.81523 9.27314C-2.08333 9.98202 -2.05885 10.7684 -1.74717 11.4592L1.89893 9.81421ZM24.5444 4.15425C24.6054 3.99162 24.6461 3.84315 24.6685 3.75944L20.8052 2.72292C20.8018 2.73532 20.7993 2.74477 20.7971 2.75238C20.795 2.75993 20.7936 2.76464 20.7928 2.76722C20.791 2.77308 20.7931 2.76577 20.7991 2.74976L24.5444 4.15425ZM21.446 4.76882C23.2114 6.2606 24.5974 8.29633 25.4984 10.6862L29.2412 9.2751C28.13 6.32754 26.3759 3.69775 24.0277 1.71354L21.446 4.76882ZM25.4991 10.6881C25.4461 10.5478 25.4211 10.3984 25.4258 10.2485L29.4239 10.3729C29.4356 9.99786 29.3732 9.62415 29.2405 9.27314L25.4991 10.6881ZM25.4258 10.2485C25.4305 10.0985 25.4646 9.95095 25.5263 9.81421L29.1724 11.4592C29.3268 11.1171 29.4122 10.748 29.4239 10.3729L25.4258 10.2485ZM25.5263 9.81421C25.588 9.67748 25.676 9.55422 25.7854 9.45148L28.5244 12.3665C28.7979 12.1096 29.0181 11.8012 29.1724 11.4592L25.5263 9.81421ZM25.7854 9.45148C25.8947 9.34876 26.0232 9.26857 26.1635 9.21549L27.5785 12.9569C27.9295 12.8241 28.251 12.6235 28.5244 12.3665L25.7854 9.45148ZM26.1635 9.21549C26.3039 9.16242 26.4533 9.13751 26.6032 9.14218L26.4787 13.1402C26.8538 13.1519 27.2275 13.0896 27.5785 12.9569L26.1635 9.21549ZM26.6032 9.14218C26.7531 9.14685 26.9007 9.181 27.0375 9.2427L25.3925 12.8888C25.7345 13.0431 26.1037 13.1286 26.4787 13.1402L26.6032 9.14218ZM27.0375 9.2427C27.1742 9.3044 27.2975 9.39242 27.4002 9.50175L24.4851 12.2408C24.7421 12.5143 25.0504 12.7345 25.3925 12.8888L27.0375 9.2427ZM27.4002 9.50175C27.5029 9.61108 27.5831 9.73958 27.6362 9.8799L23.8948 11.2949C24.0276 11.6459 24.2282 11.9673 24.4851 12.2408L27.4002 9.50175ZM27.6383 9.88548C27.2782 8.92464 26.8379 7.99579 26.3221 7.10874L22.8642 9.11944C23.2672 9.81262 23.6113 10.5385 23.8927 11.2893L27.6383 9.88548ZM23.1998 6.67927C23.235 6.6451 23.2723 6.61324 23.3115 6.58388L25.7102 9.78485C25.8072 9.71218 25.8994 9.63338 25.9864 9.54891L23.1998 6.67927ZM23.3108 6.58436L20.7398 8.51262L23.1398 11.7126L25.7108 9.78436L23.3108 6.58436ZM20.7398 8.51262C20.8599 8.42256 20.9966 8.35703 21.142 8.31978L22.1347 12.1946C22.4981 12.1015 22.8397 11.9377 23.1398 11.7126L20.7398 8.51262ZM21.142 8.31978C21.2874 8.28253 21.4387 8.27428 21.5873 8.29551L21.0216 12.2553C21.393 12.3084 21.7713 12.2877 22.1347 12.1946L21.142 8.31978ZM21.5873 8.29551C21.7359 8.31674 21.8789 8.36703 22.008 8.44349L19.97 11.8854C20.2928 12.0765 20.6502 12.2022 21.0216 12.2553L21.5873 8.29551ZM22.008 8.44349C22.1371 8.51997 22.25 8.62113 22.34 8.74122L19.14 11.1412C19.3652 11.4414 19.6472 11.6942 19.97 11.8854L22.008 8.44349ZM22.34 8.74122C22.4301 8.8613 22.4956 8.99794 22.5329 9.14335L18.658 10.1361C18.7511 10.4995 18.9149 10.8411 19.14 11.1412L22.34 8.74122ZM22.5329 9.14335C22.5701 9.28874 22.5784 9.44006 22.5572 9.58866L18.5974 9.02297C18.5443 9.3944 18.5649 9.77263 18.658 10.1361L22.5329 9.14335ZM22.5572 9.58866C22.5359 9.73727 22.4856 9.88023 22.4092 10.0094L18.9673 7.97139C18.7761 8.29421 18.6504 8.65154 18.5974 9.02297L22.5572 9.58866ZM22.4092 10.0094C22.3327 10.1385 22.2315 10.2514 22.1114 10.3414L19.7114 7.14142C19.4113 7.36653 19.1584 7.64856 18.9673 7.97139L22.4092 10.0094ZM22.1114 10.3414L24.6824 8.41316L22.2824 5.21316L19.7114 7.14142L22.1114 10.3414ZM24.6763 8.41777C24.6029 8.4724 24.5231 8.51797 24.4388 8.5535L22.8861 4.86714C22.6739 4.95651 22.4733 5.07114 22.2886 5.20855L24.6763 8.41777ZM25.264 5.51246C24.7347 4.80469 24.1452 4.14397 23.5021 3.53768L20.7581 6.44811C21.2336 6.89638 21.6694 7.38489 22.0608 7.90819L25.264 5.51246ZM24.0169 5.65612L24.5586 4.11523L20.7849 2.78878L20.2433 4.32967L24.0169 5.65612ZM19.6995 3.6157C19.4534 3.4902 19.2611 3.27981 19.1581 3.02345L22.8699 1.53264C22.6125 0.891853 22.1318 0.365964 21.5166 0.0522663L19.6995 3.6157ZM19.1581 3.02345C19.0551 2.76709 19.0485 2.48211 19.1394 2.22124L22.9166 3.53781C23.1438 2.88575 23.1273 2.17343 22.8699 1.53264L19.1581 3.02345ZM19.1404 2.21842L14.6189 15.1283L18.394 16.4505L22.9156 3.54063L19.1404 2.21842ZM14.6189 15.1282C14.4815 15.5205 14.2787 15.8867 14.019 16.2113L17.1427 18.7098C17.6843 18.0327 18.1074 17.2689 18.394 16.4506L14.6189 15.1282ZM14.0185 16.212C13.8577 16.4132 13.7206 16.4592 13.6291 16.4736C13.5112 16.4922 13.3508 16.4716 13.1866 16.3814C13.0222 16.291 12.9139 16.1637 12.8627 16.0474C12.8219 15.9549 12.7893 15.8133 12.8675 15.5789L9.07297 14.3133C7.44979 19.1799 13.8386 22.8445 17.1433 18.7091L14.0185 16.212ZM12.8677 15.5784C12.9768 15.2509 13.1313 14.9403 13.3267 14.6557L10.0295 12.3912C9.62222 12.9842 9.30019 13.6314 9.07279 14.3139L12.8677 15.5784ZM13.3268 14.6557L21.1615 3.2473L17.8642 0.982864L10.0294 12.3913L13.3268 14.6557ZM21.1624 3.24591C21.0056 3.47467 20.771 3.63862 20.5022 3.70717L19.5135 -0.168715C18.8417 0.00264609 18.2552 0.412431 17.8632 0.984254L21.1624 3.24591ZM20.5022 3.70717C20.2334 3.77573 19.9489 3.74422 19.7017 3.61852L21.5144 0.0528716C20.8965 -0.261318 20.1853 -0.340075 19.5135 -0.168715L20.5022 3.70717ZM22.6081 1.8357V1.83398H18.6081V1.8357H22.6081ZM15.636 7.25436L11.4418 13.3614L14.7391 15.6259L18.9333 9.51887L15.636 7.25436ZM11.4451 13.3566C11.1238 13.8215 10.8746 14.3273 10.6987 14.8525L14.4915 16.1229C14.5521 15.942 14.6354 15.7759 14.7358 15.6306L11.4451 13.3566ZM10.6977 14.8553C9.62648 18.069 13.7988 20.143 15.803 17.6416L12.6815 15.1404C12.8284 14.9571 13.0666 14.8086 13.3461 14.7642C13.6 14.7238 13.8233 14.7782 13.9921 14.869C14.1616 14.9602 14.3363 15.1208 14.4448 15.3655C14.564 15.6346 14.5612 15.914 14.4925 16.1202L10.6977 14.8553ZM15.804 17.6404C16.2271 17.1116 16.5537 16.5191 16.7766 15.8865L13.0037 14.5576C12.9283 14.7717 12.8196 14.9677 12.6805 15.1416L15.804 17.6404ZM16.7777 15.8833L19.1722 9.04782L15.3971 7.72541L13.0026 14.5609L16.7777 15.8833Z" fill="#052441" mask="url(#path-1-inside-1_985_5989)"/>
</svg>
