<svg width="25" height="22" viewBox="0 0 49 50" fill="none" xmlns="http://www.w3.org/2000/svg">
<path d="M18.4176 9.90999e-05C14.9209 -0.0112934 11.4977 0.959805 8.57196 2.79307L20.2408 13.9649C20.6294 14.2824 20.9478 14.6711 21.1771 15.1081C21.4064 15.5452 21.542 16.0217 21.576 16.5098C21.61 16.9978 21.5416 17.4873 21.3749 17.9497C21.2083 18.412 20.9466 18.8377 20.6055 19.2017C20.2252 19.5284 19.7806 19.7789 19.2977 19.9384C18.8148 20.098 18.3034 20.1635 17.7937 20.1309C17.284 20.0984 16.7862 19.9685 16.3297 19.749C15.8733 19.5295 15.4673 19.2247 15.1357 18.8526L3.10219 7.68076C1.02166 10.6119 -0.0609966 14.0873 0.00265391 17.6307C0.0218589 22.301 1.96816 26.7747 5.41747 30.0771C8.86678 33.3795 13.5395 35.2429 18.4176 35.2613C20.0139 35.2697 21.6056 35.0938 23.158 34.7376L35.3738 46.4332C37.0905 48.0767 39.4187 49 41.8464 49C44.2741 49 46.6023 48.0767 48.319 46.4332C50.0356 44.7896 51 42.5606 51 40.2363C51 37.912 50.0356 35.6829 48.319 34.0394L36.1031 22.3438C36.4752 20.8575 36.6589 19.3337 36.6501 17.8053C36.6986 15.4837 36.2629 13.1762 35.3683 11.0179C34.4738 8.85953 33.1385 6.89377 31.4406 5.23566C29.7427 3.57756 27.7163 2.26045 25.4801 1.36145C23.2439 0.462452 20.8429 -0.000365354 18.4176 9.90999e-05ZM33.0036 17.6307C33.0009 18.8711 32.8168 20.105 32.4566 21.2965L31.9097 23.2166L33.3683 24.6131L45.5841 36.3087C46.1043 36.7802 46.5183 37.3487 46.8005 37.9791C47.0827 38.6095 47.2272 39.2886 47.225 39.9744C47.2455 40.6628 47.1094 41.3473 46.8261 41.9803C46.5427 42.6133 46.1189 43.1797 45.5841 43.6402C45.0903 44.1366 44.4962 44.5319 43.8381 44.8019C43.1799 45.072 42.4713 45.2112 41.7552 45.2112C41.0392 45.2112 40.3306 45.072 39.6724 44.8019C39.0143 44.5319 38.4202 44.1366 37.9264 43.6402L25.7106 31.9447L24.252 30.5482L22.2464 31.0718C21.0019 31.4167 19.7131 31.593 18.4176 31.5955C14.5433 31.5852 10.8218 30.1475 8.02499 27.5806C6.61059 26.3065 5.49053 24.7628 4.73688 23.0492C3.98324 21.3355 3.61272 19.4898 3.64917 17.6307C3.65168 16.333 3.83564 15.0414 4.19615 13.7904L12.2185 21.471C12.8964 22.1773 13.7143 22.7473 14.6246 23.1478C15.5349 23.5483 16.5194 23.7713 17.5207 23.8038C18.5219 23.8362 19.5199 23.6776 20.4565 23.337C21.393 22.9965 22.2494 22.4808 22.9757 21.8201C23.6658 21.1248 24.2044 20.3049 24.5601 19.4082C24.9158 18.5116 25.0815 17.5561 25.0475 16.5975C25.0136 15.6388 24.7807 14.6963 24.3624 13.8247C23.9441 12.9532 23.3487 12.1701 22.611 11.5211L14.5887 3.84043C15.7679 3.48338 16.9985 3.30664 18.2352 3.31675C22.1095 3.32705 25.831 4.76474 28.6278 7.33163C31.4272 10.0909 32.9963 13.7841 33.0036 17.6307Z" fill="#FFF" stroke='white'/>
</svg>
